PathFileType	4	(X/Y/Z)	C:\Users\dbl\Desktop\20210112(1)\20210112\bx_n_10_1802.trc
DataRate	CameraRate	NumFrames	NumMarkers	Units	OrigDataRate	OrigDataStartFrame	OrigNumFrames
50.00	50.00	       4	43	mm	50.00	65	       518
Frame#	Time	Top.Head			R.Acromium			L.Acromium			Sternum			R.ASIS			L.ASIS			V.Sacral			R.Thigh.Upper			R.Thigh.Front			R.Thigh.Rear			R.Knee.Lat			R.Knee.Med			R.Shank.Upper			R.Shank.Front			R.Shank.Rear			R.Ankle.Lat			R.Midfoot.Lat			R.Toe.Lat			R.Toe.Tip			R.Toe.Med			R.Ankle.Med			R.Midfoot.Sup			R.Heel			L.Thigh.Upper			L.Thigh.Front			L.Thigh.Rear			L.Knee.Lat			L.Knee.Med			L.Shank.Upper			L.Shank.Front			L.Shank.Rear			L.Ankle.Lat			L.Midfoot.Lat			L.Toe.Lat			L.Toe.Tip			L.Toe.Med			L.Ankle.Med			L.Midfoot.Sup			L.Heel			origin1 front left			origin2 front right			origin 3 back right			origin 4 back leftt			
		X1	Y1	Z1	X2	Y2	Z2	X3	Y3	Z3	X4	Y4	Z4	X5	Y5	Z5	X6	Y6	Z6	X7	Y7	Z7	X8	Y8	Z8	X9	Y9	Z9	X10	Y10	Z10	X11	Y11	Z11	X12	Y12	Z12	X13	Y13	Z13	X14	Y14	Z14	X15	Y15	Z15	X16	Y16	Z16	X17	Y17	Z17	X18	Y18	Z18	X19	Y19	Z19	X20	Y20	Z20	X21	Y21	Z21	X22	Y22	Z22	X23	Y23	Z23	X24	Y24	Z24	X25	Y25	Z25	X26	Y26	Z26	X27	Y27	Z27	X28	Y28	Z28	X29	Y29	Z29	X30	Y30	Z30	X31	Y31	Z31	X32	Y32	Z32	X33	Y33	Z33	X34	Y34	Z34	X35	Y35	Z35	X36	Y36	Z36	X37	Y37	Z37	X38	Y38	Z38	X39	Y39	Z39	X40	Y40	Z40	X41	Y41	Z41	X42	Y42	Z42	X43	Y43	Z43	

65	1.280	-283.48575	103.48557	1484.80371	-500.81818	-66.17422	1269.41772	-518.05597	278.80475	1271.11450	-573.93787	96.79440	1067.30078	-773.98956	-15.45417	922.99194	-772.72961	230.90974	927.61121	-970.46765	92.11041	968.74957	-798.59314	-91.64052	798.09686	-683.12811	-38.45251	797.15424	-731.50226	-87.70671	702.33643	-643.89075	-64.70787	590.53790	-599.53424	41.11988	564.17767	-635.08197	-63.50958	547.50543	-582.85272	-18.88611	498.01682	-694.23938	-62.34630	477.46381	-752.18201	-15.18216	206.33382	-652.61133	-70.79781	158.44757	-610.30859	-79.47861	155.28239	-549.71045	-35.59835	164.17885	-595.22827	20.78766	170.93132	-703.53418	69.61359	215.19395	-666.96393	53.34141	160.49930	-786.06494	48.26343	176.90733	-804.41400	284.60303	782.52100	-678.88300	215.98665	805.21918	-706.49194	281.97058	686.33813	-647.78033	258.52499	599.60364	-577.92908	154.82613	563.49579	-620.39996	259.39645	553.84839	-567.05066	217.82941	509.81363	-672.09692	264.18036	489.83661	-761.09790	225.59871	206.71346	-660.63458	298.50159	157.27388	-623.86456	306.57190	158.51311	-555.11041	257.50146	164.98366	-590.55212	220.34132	174.05785	-702.21674	151.46681	211.18727	-672.45117	172.24046	156.22891	-790.88434	174.16658	186.73586	-527.96570	304.44031	146.63208	-517.43671	-72.51096	143.05696	-875.59625	-78.47567	141.30544	-882.46881	296.16977	144.74268	
66	1.300	-278.13586	103.66385	1465.51025	-497.03012	-65.64484	1252.45667	-513.83752	278.77618	1254.87109	-574.63196	97.14116	1051.82178	-777.12860	-14.66587	913.89362	-775.78149	229.96776	917.48322	-973.80353	92.38856	959.88049	-800.46002	-91.71648	791.91895	-684.56000	-38.69254	793.80231	-730.73285	-88.16109	698.03729	-640.20551	-65.56099	588.36945	-595.39789	40.32940	562.76709	-630.86633	-64.40546	545.94330	-578.81055	-19.49780	496.10092	-690.57715	-62.99891	476.49017	-751.72083	-14.93811	206.36461	-652.63898	-70.79476	158.39799	-610.32184	-79.55220	155.25917	-549.63910	-35.82411	164.12204	-595.20905	20.85003	170.83824	-703.10583	69.83865	215.01880	-666.81641	53.57133	160.17276	-785.94690	48.46544	177.08693	-806.19135	285.01242	776.03296	-681.21802	216.18900	801.42590	-705.72565	282.71683	682.33551	-644.71594	259.41583	597.03448	-574.40039	155.90131	561.98291	-616.77350	260.39063	552.22644	-563.39526	218.60504	508.06522	-668.77051	264.86307	488.70483	-760.68280	225.41129	206.74597	-660.64508	298.41031	157.41150	-623.84607	306.47949	158.50693	-555.06696	257.42056	164.91003	-590.52454	220.24541	173.89557	-702.13818	151.43082	211.05496	-672.56244	172.22417	156.05753	-790.73016	173.97035	186.86130	-527.97815	304.41095	146.61656	-517.50653	-72.62925	143.04121	-875.60486	-78.49722	141.28638	-882.45190	296.18472	144.74896	
67	1.320	-273.15012	103.90878	1446.17749	-493.44495	-65.06748	1235.55847	-509.54391	278.72211	1238.57373	-575.29492	97.40467	1036.37073	-780.02057	-13.80131	904.81146	-778.33722	229.35791	907.29053	-976.77441	92.73488	950.59534	-801.99261	-91.51866	785.51459	-685.87628	-38.54462	790.24060	-729.75433	-88.49588	693.63110	-636.32013	-66.28934	586.10516	-591.22211	39.83908	561.45483	-626.51837	-65.12523	544.25159	-574.91370	-19.97475	493.99155	-686.75128	-63.48069	475.44098	-751.22626	-14.60872	206.44458	-652.64014	-70.74224	158.40596	-610.35651	-79.55183	155.24370	-549.56396	-35.97865	164.06174	-595.17389	20.96727	170.68738	-702.60553	70.10947	214.71692	-666.69543	53.85389	159.86069	-785.74084	48.73751	177.30698	-807.63452	285.49945	769.32751	-683.34747	216.50072	797.30743	-704.75592	283.58344	678.12250	-641.48779	260.34454	594.38922	-570.68451	157.12622	560.50549	-613.00146	261.41965	550.46997	-559.61053	219.33748	506.22122	-665.31042	265.48502	487.41614	-760.26410	225.19644	206.73085	-660.61230	298.26669	157.63087	-623.82977	306.39828	158.52283	-554.95825	257.30362	164.79103	-590.41980	220.07317	173.73752	-702.08496	151.27394	210.81090	-672.46594	172.12265	155.90030	-790.55835	173.72708	186.99104	-527.99274	304.37549	146.62973	-517.52515	-72.67561	143.07953	-875.62140	-78.54870	141.27394	-882.45038	296.18738	144.74440	
68	1.340	-268.53793	104.27982	1426.87695	-490.07245	-64.48444	1218.74854	-505.25919	278.63214	1222.18152	-575.73749	97.53754	1021.04333	-782.63550	-12.97243	895.76648	-780.62061	229.62132	897.66400	-979.53540	93.11807	940.90497	-803.08527	-91.12830	778.81738	-686.96429	-38.08847	786.39667	-728.50519	-88.75628	689.01172	-632.21875	-67.00588	583.68097	-586.99969	39.60655	560.26495	-621.98779	-65.74979	542.33234	-571.08997	-20.41385	491.72189	-682.75940	-63.86131	474.25287	-750.68842	-14.21975	206.59908	-652.57111	-70.64014	158.47748	-610.35992	-79.48160	155.22038	-549.45630	-36.11436	163.95447	-595.08990	21.11489	170.45712	-701.99414	70.45714	214.31108	-666.57965	54.16327	159.56216	-785.44568	49.10593	177.57553	-808.81274	286.09573	762.37744	-685.22638	216.99004	792.84583	-703.56519	284.61475	673.76123	-638.08618	261.41278	591.62994	-566.70123	158.48604	559.10596	-609.08502	262.54599	548.56091	-555.73755	220.17424	504.32211	-661.76196	266.12018	485.92764	-759.94287	225.02719	206.70512	-660.56311	298.10825	157.86609	-623.81970	306.34122	158.55891	-554.80261	257.13489	164.56812	-590.23206	219.87900	173.62546	-701.92004	151.01294	210.49593	-672.22186	171.99815	155.68332	-790.36560	173.45042	187.09630	-528.00922	304.33749	146.68140	-517.51459	-72.64738	143.13284	-875.63306	-78.60564	141.25972	-882.45624	296.18427	144.73607	
